<?xml version="1.0" encoding="utf-8"?>
<!-- Generator: Adobe Illustrator 19.1.0, SVG Export Plug-In . SVG Version: 6.00 Build 0)  -->
<!DOCTYPE svg PUBLIC "-//W3C//DTD SVG 1.1//EN" "http://www.w3.org/Graphics/SVG/1.1/DTD/svg11.dtd">
<svg version="1.1" id="Layer_1" xmlns="http://www.w3.org/2000/svg" xmlns:xlink="http://www.w3.org/1999/xlink" x="0px" y="0px"
	 viewBox="0 0 568.3 570.2" style="enable-background:new 0 0 568.3 570.2;" xml:space="preserve">
<g>
	<g fill-opacity="0.03">
		<path d="M482.4,323.8c-17.9,0-32.5,13.3-32.5,29.7c0,16.4,14.6,29.7,32.5,29.7c17.5,0,31.2-13.1,31.2-29.7
			C513.6,336.9,499.9,323.8,482.4,323.8z M482.4,371.5c-10.9,0-19.7-8.3-19.7-17.6c0-9.3,8.8-17.6,19.7-17.6
			c10.5,0,18.4,8,18.4,17.6C500.8,363.5,492.9,371.5,482.4,371.5z M13.1,19.8H98V7H0.1v12.8v10.7h13V19.8z M551.9,95.5h-12.8v97.8
			h12.8V95.5z M539.1,95.5h-10.7v13h10.7V95.5z M12.9,452.9H0.1v97.8h12.8h10.7v-13H12.9V452.9z M38.6,232.4v-13H27.9v-35.9H15.1
			v48.9h12.8H38.6z M551.9,413.8h-12.8v48.9h12.8V413.8z M539.1,413.8h-10.7v13h10.7V413.8z M331.8,121.6v10.7h13v-10.7h35.9v-12.8
			h-49V121.6z M425.9,351.7v-12.8h-49v12.8h35.9v10.7h13V351.7z M36.6,41.2v10.7H0.7v12.8h49V51.9h0V41.2H36.6z M488.2,96.1V145H501
			h10.7v-13H501V96.1H488.2z M40.3,501.2v13H51v35.9h12.8v-48.9H51H40.3z M81.1,87H68.2v48.9h12.8V87z M456.3,48.3h-12.8v48.9h12.8
			V48.3z M483.7,559.2h12.8v-48.9h-12.8V559.2z M551.9,0.2h-12.8v48.9h12.8V0.2z M465.8,163.6L465.8,163.6l0-10.6h-13v10.6h-35.9
			v12.8h49V163.6z M135.1,469.8h-49v12.8h49V469.8z M119.2,247h12.8v-48.9h-12.8V247z M411.4,448.2h12.8v-48.9h-12.8V448.2z
			 M361.8,209.6h-49v12.8h49V209.6z M237.7,260.6h49v-12.8h-49V260.6z M246.3,414.7h-49v12.8h49V414.7z M208.6,247.8h-49v12.8h49
			V247.8z M184.1,364.2L184.1,364.2v-12.8H158v-12.8h-1.3c-11.2,0-19.7-6.7-19.7-15.6c0-9.6,10.2-13.1,19.7-13.1h1.3h26.1v-12.8H158
			h-1.3h-1.3v0c-18.7,0.5-31.2,10.7-31.2,25.9c0,16.2,14,28.4,32.5,28.5H86.1v12.8H171v10.6h13V364.2z M255.7,108.2l-22.4-59.9
			h-14.1l22.4,59.9H255.7z M61.9,310.2L2,287.8v14.1l59.9,22.4V310.2z M543.7,293.4L483.8,271v14.1l59.9,22.4V293.4z M160.8,187.3
			V200h0c0,0,0,0,0,0v0.1h0c0.1,16.6,13.8,29.6,31.2,29.6c0.2,0,0.4,0,0.6,0v-12.5c-0.2,0-0.4,0-0.6,0c-10.3,0-18.1-7.7-18.4-17.2
			h72.1v10.7h13v-23.5h0v0H160.8z M298,437H396v-12.8h-84.9v-10.7h-13L298,437L298,437L298,437z M339.1,345.7L339.1,345.7l0-97.8
			h-12.8v84.8h-10.7v13h10.7H339.1z M217.4,285.6L217.4,285.6l0,97.8h12.8v-84.8h10.7v-13L217.4,285.6L217.4,285.6z M80.2,232v-13
			h-4.3l0,0H61.8l-22.4,59.9h14.1L71,232H80.2z M290.6,13h9.1V0h-4.3h-6.4h-7.7L259,59.9h14.1L290.6,13z M319.5,175.5v-4.3v-6.4
			v-7.7l-59.9-22.4v14.1l46.9,17.5v9.1H319.5z M278.2,511.5v-14.1l-46.9-17.5v-9.1h-13v10.7h0v7.7L278.2,511.5z M290.3,286.2h-7.7
			L260.2,346h14.1l17.6-46.8h9.1v-13L290.3,286.2L290.3,286.2z M557.4,321.1h-7.7l-22.4,59.9h14.1l17.6-46.8h9.1v-13L557.4,321.1
			L557.4,321.1z M0.7,138.8v12.8c16.7,0,29.8-13.7,29.8-31.2C30.4,102.5,17.1,88,0.7,88v12.8c9.2,0.2,17.3,8.9,17.3,19.7
			C17.9,130.8,10.2,138.6,0.7,138.8z M530.6,525.8c0,17.9,13.3,32.5,29.8,32.5v-12.8c-9.2-0.2-17.3-8.9-17.3-19.7
			c0-10.4,7.8-18.2,17.3-18.4v-12.8C543.7,494.6,530.6,508.3,530.6,525.8z M150.5,45.6c17.9,0,32.5-13.3,32.5-29.7h-12.8
			c-0.2,9.2-9,17.3-19.7,17.3c-10.4,0-18.2-7.8-18.4-17.3h-12.9C119.2,32.5,133,45.6,150.5,45.6z M119.6,520.4
			c-17.9,0-32.5,13.3-32.5,29.7h12.8c0.2-9.2,9-17.3,19.7-17.3c10.4,0,18.2,7.8,18.4,17.3h12.9C150.8,533.5,137.1,520.4,119.6,520.4
			z M332.8,69.6c0-17.9-13.4-32.5-29.8-32.5V50c9.2,0.2,17.3,8.9,17.3,19.7c0,10.4-7.8,18.2-17.3,18.4v12.8
			C319.7,100.8,332.8,87.1,332.8,69.6z M98,139.4c0,17.5,13.1,31.2,29.8,31.2v-12.8c-9.5-0.2-17.3-8-17.3-18.4
			c0-10.7,8.1-19.5,17.3-19.7v-12.8C111.3,106.9,98,121.5,98,139.4z M436.7,475.6v12.8c9.5,0.2,17.3,8,17.3,18.4
			c0,10.7-8.1,19.4-17.3,19.7v12.8c16.4,0,29.8-14.6,29.8-32.5C466.5,489.3,453.4,475.6,436.7,475.6z M433,223.1h12.8
			c0-16.4-14.6-29.7-32.5-29.7c-17.5,0-31.2,13.1-31.2,29.7H395c0.2-9.5,8-17.3,18.4-17.3C424.1,205.8,432.8,213.9,433,223.1z
			 M157,423.2c-0.2,9.5-8,17.3-18.4,17.3c-10.7,0-19.5-8.1-19.7-17.3h-12.8c0,16.4,14.6,29.7,32.5,29.7c17.5,0,31.2-13.1,31.2-29.7
			H157z M316.3,366.7h-12.9c-0.2,9.5-8,17.3-18.4,17.3c-10.7,0-19.5-8.1-19.7-17.3h-12.8c0,16.4,14.6,29.7,32.5,29.7
			C302.6,396.4,316.3,383.4,316.3,366.7z M449.3,14.5c10.7,0,19.5,8.1,19.7,17.3h12.8c0-16.4-14.6-29.7-32.5-29.7
			c-17.5,0-31.2,13.1-31.2,29.7h12.9C431.1,22.3,438.9,14.5,449.3,14.5z M436.7,513.6c-9.5-0.2-17.3-8-17.3-18.4
			c0-10.7,8.1-19.4,17.3-19.7v-12.8c-16.4,0-29.8,14.6-29.8,32.5c0,17.5,13.1,31.2,29.8,31.2V513.6z M119,423.2h12.9
			c0.2-9.5,8-17.3,18.4-17.3c10.7,0,19.5,8.1,19.7,17.3h12.8c0-16.4-14.6-29.7-32.5-29.7C132.7,393.4,119,406.5,119,423.2z
			 M104.4,247c0,0.2,0,0.4,0,0.6c0,17.5,13.1,31.2,29.8,31.2V266c-9.5-0.2-17.3-8-17.3-18.4c0-0.2,0-0.4,0-0.6H104.4z M382.1,403.5
			c0-0.2,0-0.4,0-0.6c0-17.5-13.1-31.2-29.8-31.2v12.8c9.5,0.2,17.3,8,17.3,18.4c0,0.2,0,0.4,0,0.6H382.1z M305.7,207.2v-12.5
			c-0.2,0-0.4,0-0.6,0c-17.5,0-31.2,13.1-31.2,29.7h12.9c0.2-9.5,8-17.3,18.4-17.3C305.3,207.2,305.5,207.2,305.7,207.2z
			 M246.3,457.2c0.2,0,0.4,0,0.6,0c17.5,0,31.2-13.1,31.2-29.7h-12.9c-0.2,9.5-8,17.3-18.4,17.3c-0.2,0-0.4,0-0.6,0V457.2z
			 M264.5,547.2c-0.2,0-0.4,0-0.6,0v12.5c0.2,0,0.4,0,0.6,0c17.5,0,31.2-13.1,31.2-29.7h-12.9C282.7,539.4,274.8,547.2,264.5,547.2z
			 M519.4,55.3c0.2,0,0.4,0,0.6,0V42.9c-0.2,0-0.4,0-0.6,0c-17.5,0-31.2,13.1-31.2,29.7H501C501.2,63.1,509,55.3,519.4,55.3z
			 M502.4,235.7c0,0.2,0,0.4,0,0.6h12.5c0-0.2,0-0.4,0-0.6c0-17.5-13.1-31.2-29.8-31.2v12.8C494.6,217.5,502.4,225.3,502.4,235.7z
			 M81.1,198.8c0-17.5-13.1-31.2-29.8-31.2v12.8c9.5,0.2,17.3,8,17.3,18.4c0,0.2,0,0.4,0,0.6H81C81,199.2,81.1,199,81.1,198.8z
			 M98.3,310.1c0,0.2,0,0.4,0,0.6h12.5c0-0.2,0-0.4,0-0.6c0-17.5-13.1-31.2-29.8-31.2v12.8C90.6,291.9,98.3,299.7,98.3,310.1z
			 M490.8,447.4c0-0.2,0-0.4,0-0.6h-12.5c0,0.2,0,0.4,0,0.6c0,17.5,13.1,31.2,29.8,31.2v-12.8C498.6,465.6,490.8,457.8,490.8,447.4z
			 M372.3,146.7c-0.2,9.5-8,17.3-18.4,17.3c-0.2,0-0.4,0-0.6,0v12.5c0.2,0,0.4,0,0.6,0c17.5,0,31.2-13.1,31.2-29.7H372.3z
			 M194.7,493c0.2,0,0.4,0,0.6,0v-12.5c-0.2,0-0.4,0-0.6,0c-17.5,0-31.2,13.1-31.2,29.7h12.9C176.5,500.8,184.3,493,194.7,493z
			 M95.6,39.2H83.1c0,0.2,0,0.4,0,0.6c0,17.5,13.1,31.2,29.8,31.2V58.2c-9.5-0.2-17.3-8-17.3-18.4C95.6,39.6,95.6,39.4,95.6,39.2z
			 M387.5,19.9c0.2,0,0.4,0,0.6,0V7.4c-0.2,0-0.4,0-0.6,0c-17.5,0-31.2,13.1-31.2,29.7h12.9C369.3,27.6,377.2,19.9,387.5,19.9z
			 M195.3,149.1H194h-26.1v12.8H194h1.3h1.3v0c18.7-0.4,31.2-10.7,31.2-25.9c0-16.2-14-28.5-32.5-28.5H194v12.8h1.3
			c11.2,0,19.7,6.7,19.7,15.6C215,145.7,204.8,149.1,195.3,149.1z M339.6,488.8c0,11.2-6.7,19.7-15.7,19.7
			c-9.7,0-13.1-10.2-13.1-19.7v-1.3v-26.1H298v26.1v1.3v1.3h0c0.5,18.7,10.7,31.2,25.9,31.2c16.2,0,28.5-14,28.5-32.5v-1.3h-12.8
			V488.8z M465.1,279.3c0-17.9-13.4-32.5-29.8-32.5v12.8c9.2,0.2,17.3,8.9,17.3,19.7c0,10.4-7.8,18.2-17.3,18.4v12.8
			C452,310.5,465.1,296.8,465.1,279.3z M486.8,400.6H474c-0.2,9.5-8,17.3-18.4,17.3c-0.2,0-0.4,0-0.6,0v12.5c0.2,0,0.4,0,0.6,0
			C473.1,430.4,486.8,417.3,486.8,400.6z M147.7,125c0,1.2,0,10.8,0,10.8h12.9c0,0,0-9.6,0-10.9c0.1-11-0.3-25.7,8.4-34.5
			c5.2-5.2,13.3-8,24.3-8.3h8V60.5h-13.2v9c-12,1.1-21.5,5.1-28.2,11.9C147.3,93.9,147.9,112.5,147.7,125z M90.5,393.4H77.6
			c0,0,0,9.6,0,10.9c-0.1,11,0.3,25.7-8.4,34.5c-5.2,5.2-13.3,8-24.3,8.3h-8v21.5h13.2v-9c12-1.1,21.5-5.1,28.2-11.9
			c12.5-12.6,11.9-31.2,12.1-43.7C90.6,403,90.5,393.4,90.5,393.4z M386.1,264.7c1.3-0.1,24.5,0,24.5,0V252h-27.2
			c-10.6,0-17.7,8.6-17.7,19.8c0,7.4,3.7,12.5,8.7,15.5c-2.3,3.1-3.7,6.9-3.7,11.1c0,10.4,7.7,18.2,18,18.2l21.9,0v-12.7h-20.3
			c-3.1,0-6.1-2.6-6.1-6.5c0-4.5,3.5-7.2,6.1-7.2h20.3v-11.8l-23.4,0c-3.8,0.1-7.7-2.3-7.7-6.7C379.6,267.6,382.4,264.9,386.1,264.7
			z M36.6,400.5c-1.3,0.1-24.5,0-24.5,0v12.7h27.2c10.6,0,17.7-8.6,17.7-19.8c0-7.4-3.7-12.5-8.7-15.5c2.3-3.1,3.7-6.9,3.7-11.1
			c0-10.4-7.7-18.2-18-18.2l-21.9,0v12.7h20.3c3.1,0,6.1,2.6,6.1,6.5c0,4.5-3.5,7.2-6.1,7.2H12.1v11.8l23.4,0
			c3.8-0.1,7.7,2.3,7.7,6.7C43.1,397.6,40.3,400.3,36.6,400.5z M220.2,525.4c-7.4,0-12.5,3.7-15.5,8.7c-3.1-2.3-7-3.7-11.1-3.7
			c-10.4,0-18.2,7.7-18.2,18l0,21.9h12.7v-20.3c0-3.1,2.6-6.1,6.5-6.1c4.5,0,7.2,3.5,7.2,6.1v20.3h11.8l0-23.3
			c-0.1-3.8,2.3-7.6,6.7-7.6c4.1,0,6.8,2.9,7,6.5c0.1,1.3,0,24.5,0,24.5H240V543C240,532.4,231.4,525.4,220.2,525.4z M372,61.7h-2.7
			v12.5H381l40.6,56.3H441l0,0h2.7V118H432l-40.6-56.3L372,61.7L372,61.7z M390,471l-15.8-11.3v0l-2.2-1.6l-7.3,10.1l9.5,6.8l0,69.4
			l15.8,11.3v0l2.2,1.6l7.3-10.1l-9.5-6.8L390,471z M19.7,274.1h12.8c0-16.4-14.6-29.7-32.5-29.7c0,5.9,0,7.7,0,12.5
			C10.7,256.8,19.5,264.9,19.7,274.1z M536.1,274.1H550c0.2-9.5,8-17.3,18.4-17.3c0-6.7,0-9.4,0-12.5
			C550.8,244.3,536.1,257.4,536.1,274.1z M328.1,570.2h13v-19h-13V570.2z M341.1,0.2h-13v22h13V0.2z"/>
	</g>
</g>
</svg>
